<svg xmlns="http://www.w3.org/2000/svg" version="1.1" xmlns:xlink="http://www.w3.org/1999/xlink" xmlns:svgjs="http://svgjs.dev/svgjs" width="2000" height="1500" viewBox="0 0 2000 1500"><rect width="2000" height="1500" fill="#051726"></rect><g transform="matrix(0.75,0,0,0.75,249.13417908119595,197.69759619892693)"><svg viewBox="0 0 335 247" data-background-color="#051726" preserveAspectRatio="xMidYMid meet" height="1474" width="2000" xmlns="http://www.w3.org/2000/svg" xmlns:xlink="http://www.w3.org/1999/xlink"><g id="tight-bounds" transform="matrix(1,0,0,1,0.19336684885445266,-0.10000566362273844)"><svg viewBox="0 0 334.6132664792792 247.2" height="247.2" width="334.6132664792792"><g><svg viewBox="0 0 334.6132664792792 247.2" height="247.2" width="334.6132664792792"><g><svg viewBox="0 0 170.7387387387387 247.2" height="247.2" width="170.7387387387387"><g id="textblocktransform"><svg viewBox="0 0 170.7387387387387 247.2" height="247.2" width="170.7387387387387" id="textblock"><g><svg viewBox="0 0 170.7387387387387 247.2" height="247.2" width="170.7387387387387"><g transform="matrix(1,0,0,1,0,0)"><svg width="170.7387387387387" viewBox="1.850000023841858 -32.70000076293945 23 33.29999923706055" height="247.2" data-palette-color="#ffffff"><path d="M11 0.6Q8.7 0.6 6.75 0.18 4.8-0.25 3.53-0.75 2.25-1.25 2.25-1.3L2.25-1.3 1.85-2Q1.9-2.35 2.08-3.53 2.25-4.7 2.45-6.68 2.65-8.65 2.65-10.5L2.65-10.5 6.75-10.8Q6.75-8 7.25-6.5 7.75-5 8.93-4.38 10.1-3.75 12.3-3.75L12.3-3.75Q14.7-3.75 16.15-4.8 17.6-5.85 17.6-7.7L17.6-7.7Q17.6-9.35 16.07-10.5 14.55-11.65 11.35-13.2L11.35-13.2Q11.15-13.3 10.2-13.75L10.2-13.75Q6.45-15.55 4.35-17.55 2.25-19.55 2.25-22.75L2.25-22.75Q2.25-25.6 3.95-27.88 5.65-30.15 8.68-31.43 11.7-32.7 15.55-32.7L15.55-32.7Q17.75-32.7 19.63-32.4 21.5-32.1 22.63-31.78 23.75-31.45 24.05-31.35L24.05-31.35 24.4-30.7Q24.35-30.4 24.1-29.18 23.85-27.95 23.6-26.05 23.35-24.15 23.2-22.15L23.2-22.15 19.5-21.85 19.05-22.15Q19.05-22.3 19.1-22.78 19.15-23.25 19.15-23.95L19.15-23.95Q19.15-26.2 18.03-27.15 16.9-28.1 14.25-28.1L14.25-28.1Q12.1-28.1 10.73-27.08 9.35-26.05 9.35-24.45L9.35-24.45Q9.35-23.25 10.23-22.28 11.1-21.3 12.33-20.6 13.55-19.9 15.9-18.75L15.9-18.75Q18.7-17.4 20.53-16.3 22.35-15.2 23.6-13.5 24.85-11.8 24.85-9.45L24.85-9.45Q24.85-6.45 23.13-4.17 21.4-1.9 18.28-0.65 15.15 0.6 11 0.6L11 0.6Z" opacity="1" transform="matrix(1,0,0,1,0,0)" fill="#ffffff" class="undefined-text-0" data-fill-palette-color="primary" id="text-0"></path></svg></g></svg></g></svg></g></svg></g><g transform="matrix(1,0,0,1,229.0967259387387,70.84172972972974)"><svg viewBox="0 0 105.51654054054052 105.51654054054052" height="105.51654054054052" width="105.51654054054052"><g data-palette-color="#81ffd9"><rect width="28.841187747747743" height="105.51654054054052" fill="#81ffd9" stroke="transparent" data-fill-palette-color="accent" x="0" fill-opacity="1"></rect><rect width="28.841187747747743" height="105.51654054054052" fill="#81ffd9" stroke="transparent" data-fill-palette-color="accent" x="35.17218018018017" fill-opacity="0.75"></rect><rect width="28.841187747747743" height="105.51654054054052" fill="#81ffd9" stroke="transparent" data-fill-palette-color="accent" x="70.34436036036034" fill-opacity="0.5"></rect></g></svg></g></svg></g><defs></defs></svg><rect width="334.6132664792792" height="247.2" fill="none" stroke="none" visibility="hidden"></rect></g></svg></g></svg>